<svg version="1.0" id="Layer_1" xmlns="http://www.w3.org/2000/svg" xmlns:xlink="http://www.w3.org/1999/xlink" viewBox="0 0 64 64" enable-background="new 0 0 64 64" xml:space="preserve" fill="#000000">
    <g id="SVGRepo_bgCarrier" stroke-width="0"></g>
    <g id="SVGRepo_tracerCarrier" stroke-linecap="round" stroke-linejoin="round"></g>
    <g id="SVGRepo_iconCarrier">
        <path fill="#231F20" d="M62.79,29.172l-28-28C34.009,0.391,32.985,0,31.962,0s-2.047,0.391-2.828,1.172l-28,28 c-1.562,1.566-1.484,4.016,0.078,5.578c1.566,1.57,3.855,1.801,5.422,0.234L8,33.617V60c0,2.211,1.789,4,4,4h16V48h8v16h16 c2.211,0,4-1.789,4-4V33.695l1.195,1.195c1.562,1.562,3.949,1.422,5.516-0.141C64.274,33.188,64.356,30.734,62.79,29.172z"></path> 
    </g>
</svg>